# AST/ASF file generated using VICON BodyLanguage
# -----------------------------------------------
:version 1.10
:name VICON
:units
  mass 1.0
  length 0.45
  angle deg
:documentation
   .ast/.asf automatically generated from VICON data using
   VICON BodyBuilder and BodyLanguage model FoxedUp or BRILLIANT.MOD
:root
   order TX TY TZ RX RY RZ
   axis XYZ
   position 0 0 0  
   orientation 0 0 0 
:bonedata
  begin
     id 1 
     name lhipjoint
     direction 0.643824 -0.71708 0.266994 
     length 2.52133 
     axis 0 0 0  XYZ
  end
  begin
     id 2 
     name lfemur
     direction 0.34202 -0.939693 0  
     length 7.51824  
     axis 0 0 20  XYZ
    dof rx ry rz
    limits (-160.0 20.0)
           (-70.0 70.0)
           (-60.0 70.0)
  end
  begin
     id 3 
     name ltibia
     direction 0.34202 -0.939693 0   
     length 7.3685   
     axis 0 0 20   XYZ
    dof rx
    limits (-10.0 170.0)
  end
  begin
     id 4 
     name lfoot
     direction 0.105419 -0.289636 0.951314   
     length 2.20972   
     axis -90 7.62852e-016 20   XYZ
    dof rx rz
    limits (-45.0 90.0)
           (-70.0 20.0)
  end
  begin
     id 5 
     name ltoes
     direction 1.53549e-011 -4.21833e-011 1   
     length 1.10139   
     axis -90 7.62852e-016 20   XYZ
    dof rx
    limits (-90.0 20.0)
  end
  begin
     id 6 
     name rhipjoint
     direction -0.608823 -0.743445 0.276811   
     length 2.43192  
     axis 0 0 0  XYZ 
  end
  begin
     id 7 
     name rfemur
     direction -0.34202 -0.939693 0   
     length 7.69715   
     axis 0 0 -20   XYZ
    dof rx ry rz
    limits (-160.0 20.0)
           (-70.0 70.0)
           (-70.0 60.0)
  end
  begin
     id 8 
     name rtibia
     direction -0.34202 -0.939693 0   
     length 7.44924   
     axis 0 0 -20   XYZ
    dof rx
    limits (-10.0 170.0)
 end
 begin
     id 9 
     name rfoot
     direction -0.103614 -0.284677 0.953007   
     length 2.22623  
     axis -90 -7.62852e-016 -20   XYZ
    dof rx rz
    limits (-45.0 90.0)
           (-20.0 70.0)
  end
  begin
     id 10 
     name rtoes
     direction -1.53537e-011 -4.22026e-011 1   
     length 1.11   
     axis -90 -7.62852e-016 -20   XYZ
    dof rx
    limits (-90.0 20.0)
  end
  begin
     id 11 
     name lowerback
     direction -0.0101212 0.99662 -0.0815298   
     length 2.08277   
     axis 0 0 0   XYZ
    dof rx ry rz
    limits (-20.0 45.0)
           (-30.0 30.0)
           (-30.0 30.0)
  end
  begin
     id 12 
     name upperback
     direction 0.024314 0.999591 -0.0150645   
     length 2.08524   
     axis 0 0 0   XYZ
    dof rx ry rz
    limits (-20.0 45.0)
           (-30.0 30.0)
           (-30.0 30.0)
  end
  begin
     id 13 
     name thorax
     direction 0.0285959 0.999323 0.0231357   
     length 2.09645   
     axis 0 0 0   XYZ
    dof rx ry rz
    limits (-20.0 45.0)
           (-30.0 30.0)
           (-30.0 30.0)
  end
  begin
     id 14 
     name lowerneck
     direction -0.065512 0.979301 0.191515   
     length 1.63798   
     axis 0 0 0   XYZ
    dof rx ry rz
    limits (-20.0 45.0)
           (-30.0 30.0)
           (-30.0 30.0)
  end
  begin
     id 15 
     name upperneck
     direction 0.0498479 0.98191 -0.182667   
     length 1.68731   
     axis 0 0 0   XYZ
    dof rx ry rz
    limits (-20.0 45.0)
           (-30.0 30.0)
           (-30.0 30.0)
  end
  begin
     id 16
     name head
     direction 0.0230358 0.996257 -0.0833175  
     length 1.69785  
     axis 0 0 0   XYZ
    dof rx ry rz
    limits (-20.0 45.0)
           (-30.0 30.0)
           (-30.0 30.0)
  end
  begin
     id 17 
     name lclavicle
     direction 0.967963 0.201165 -0.150269  
     length 3.63976  
     axis 0 0 0   XYZ
    dof ry rz
    limits (-20.0 10.0)
           (0.0 20.0)
  end
  begin
     id 18 
     name lhumerus
     direction 1 -4.48954e-011 -2.92837e-028   
     length 5.32462   
     axis 180 -30 -90   XYZ
    dof rx ry rz
    limits (-60.0 90.0)
           (-90.0 90.0)
           (-90.0 90.0)
  end
  begin
     id 19
     name lradius
     direction 1 -4.48958e-011 -6.39511e-027   
     length 3.48402   
     axis 180 -30 -90   XYZ
    dof rx
    limits (-10.0 170.0)
  end
  begin
     id 20
     name lwrist
     direction 1 -4.48975e-011 -1.1413e-026   
     length 1.74201   
     axis 6.88575e-015 90 90   XYZ
    dof ry
    limits (-180.0 0.0)
 end
  begin
     id 21 
     name lhand
     direction 1 -4.48899e-011 -2.28192e-026   
     length 0.572476   
     axis 1.45643e-014 90 90   XYZ
    dof rx rz
    limits (-90.0 90.0)
           (-45.0 45.0)
  end
  begin
     id 22 
     name lfingers
     direction 1 -4.49155e-011 -4.5684e-026   
     length 0.461545   
     axis 2.91283e-014 90 90   XYZ
    dof rx
    limits (0.0 90.0)
  end
  begin
     id 23
     name lthumb
     direction 0.707107 -6.34943e-011 0.707107   
     length 0.662688   
     axis -90 45 -2.25915e-014   XYZ
    dof rx rz
    limits (-45.0 45.0)
           (-45.0 45.0)
  end
  begin
     id 24 
     name rclavicle
     direction -0.964103 0.264019 -0.0282629   
     length 3.54491  
     axis 0 0 0   XYZ 
    dof ry rz
    limits (-10.0 20.0)
           (-20.0 0.0)
  end
  begin
     id 25 
     name rhumerus
     direction -1 -4.48964e-011 -2.45032e-027  
     length 5.33589   
     axis 180 30 90   XYZ
    dof rx ry rz
    limits (-90.0 60.0)
           (-90.0 90.0)
           (-90.0 90.0)
  end
  begin
     id 26 
     name rradius
     direction -1 -4.48987e-011 -1.55093e-027   
     length 3.64134   
     axis 180 30 90   XYZ
    dof rx
    limits (-10.0 170.0)
  end
  begin
     id 27 
     name rwrist
     direction -1 -4.4897e-011 -1.14128e-026   
     length 1.82067   
     axis 6.88575e-015 -90 -90   XYZ
    dof ry
    limits (-180.0 0.0)
  end
  begin
     id 28
     name rhand
     direction -1 -4.49021e-011 -2.28301e-026   
     length 0.734811   
     axis 1.45643e-014 -90 -90   XYZ
    dof rx rz
    limits (-90.0 90.0)
           (-45.0 45.0)
  end
  begin
     id 29
     name rfingers
     direction -1 -4.48862e-011 -4.56319e-026   
     length 0.592424   
     axis 2.91283e-014 -90 -90   XYZ
    dof rx
    limits (0.0 90.0)
  end
  begin
     id 30
     name rthumb
     direction -0.707107 -6.34978e-011 0.707107   
     length 0.850605   
     axis -90 -45 2.25915e-014   XYZ
    dof rx rz
    limits (-45.0 45.0)
           (-45.0 45.0)
  end
:hierarchy
  begin
    root lhipjoint rhipjoint lowerback
    lhipjoint lfemur
    lfemur ltibia
    ltibia lfoot
    lfoot ltoes
    rhipjoint rfemur
    rfemur rtibia
    rtibia rfoot
    rfoot rtoes
    lowerback upperback
    upperback thorax
    thorax lowerneck lclavicle rclavicle
    lowerneck upperneck
    upperneck head
    lclavicle lhumerus
    lhumerus lradius
    lradius lwrist
    lwrist lhand lthumb
    lhand lfingers
    rclavicle rhumerus
    rhumerus rradius
    rradius rwrist
    rwrist rhand rthumb
    rhand rfingers
  end

#!OML:ASF F:\VICON\USERDATA\INSTALL\rory3\rory3.ASF
:FULLY-SPECIFIED
:DEGREES
148
root -3.53227 17.7154 -6.74989 2.72533 30.0754 0.567641
lowerback 2.67498 -3.56777 -6.9894
upperback 1.23887 -4.91451 1.12908
thorax 0.472994 -2.51177 5.15743
lowerneck -19.9262 -5.15636 -13.6394
upperneck 32.2544 -2.57595 0.585354
head 14.858 -2.66944 2.08838
rclavicle 1.23023e-013 -6.16232e-015
rhumerus 8.88393 -1.12497 -63.5824
rradius 82.4038
rwrist -46.8789
rhand -0.0415335 -0.47083
rfingers 7.12502
rthumb 25.5506 -28.7773
lclavicle 1.23023e-013 -6.16232e-015
lhumerus 14.0765 -18.8464 80.3443
lradius 72.1304
lwrist 78.7513
lhand -7.37467 30.274
lfingers 7.12502
lthumb 18.5104 59.4133
rfemur -24.6534 -9.78562 18.1251
rtibia 43.9724
rfoot -20.1052 -16.6082
rtoes 6.77811
lfemur -5.56846 3.6467 -24.067
ltibia 25.4951
lfoot -17.3709 13.2587
ltoes -11.0236
149
root -3.51138 17.7148 -6.77362 2.58801 30.0431 0.464029
lowerback 2.59478 -3.59561 -6.98301
upperback 1.24272 -4.94566 1.15339
thorax 0.527918 -2.52973 5.17286
lowerneck -20.0375 -5.09925 -13.601
upperneck 32.4607 -2.49202 0.621196
head 14.9692 -2.63301 2.11284
rclavicle -3.35698e-014 -7.35503e-015
rhumerus 10.0111 -1.28624 -63.797
rradius 80.4709
rwrist -48.7091
rhand -4.07915 -2.26177
rfingers 7.12502
rthumb 21.678 -31.0681
lclavicle -3.35698e-014 -7.35503e-015
lhumerus 15.0522 -18.7474 80.0776
lradius 70.9219
lwrist 79.395
lhand -7.38829 30.2718
lfingers 7.12502
lthumb 18.4973 59.4123
rfemur -24.8503 -9.52689 18.0331
rtibia 44.4155
rfoot -19.946 -16.6768
rtoes 7.04068
lfemur -5.53298 3.88135 -24.0531
ltibia 25.5035
lfoot -17.3849 13.075
ltoes -11.0003
150
root -3.48497 17.7154 -6.79719 2.43841 29.869 0.389186
lowerback 2.53955 -3.56921 -6.95653
upperback 1.23312 -4.90631 1.15252
thorax 0.540902 -2.51009 5.15377
lowerneck -20.2068 -5.03768 -13.4303
upperneck 32.7621 -2.369 0.471653
head 15.1308 -2.59392 2.04458
rclavicle -7.77993e-014 -4.77083e-015
rhumerus 11.1947 -1.55109 -64.0617
rradius 78.5586
rwrist -50.7097
rhand -7.97749 -3.50769
rfingers 7.12502
rthumb 17.9305 -32.7011
lclavicle -7.77993e-014 -4.77083e-015
lhumerus 16.0366 -18.6286 79.852
lradius 69.8341
lwrist 79.7957
lhand -7.66772 30.5542
lfingers 7.12502
lthumb 18.2285 59.72
rfemur -25.0435 -9.24557 17.895
rtibia 44.8626
rfoot -19.628 -16.6831
rtoes 6.34319
lfemur -5.41532 3.99056 -24.109
ltibia 25.4806
lfoot -17.4396 13.0764
ltoes -10.5974
151
root -3.4562 17.7126 -6.81855 2.23139 29.6542 0.404619
lowerback 2.6074 -3.54586 -6.95961
upperback 1.22987 -4.88031 1.13611
thorax 0.494672 -2.49518 5.1437
lowerneck -20.337 -4.96245 -13.3645
upperneck 33.0147 -2.20303 0.346936
head 15.2629 -2.54456 2.01231
rclavicle -3.56446e-014 1.0138e-014
rhumerus 12.494 -1.83715 -64.4244
rradius 76.6999
rwrist -52.6025
rhand -11.2901 -4.60594
rfingers 7.12502
rthumb 14.741 -34.0618
lclavicle -3.56446e-014 1.0138e-014
lhumerus 17.0286 -18.4319 79.6337
lradius 68.7638
lwrist 79.9745
lhand -8.04912 31.3945
lfingers 7.12502
lthumb 17.8616 60.5943
rfemur -25.1239 -8.95562 17.6285
rtibia 45.3222
rfoot -19.2666 -16.5408
rtoes 5.50901
lfemur -5.13228 4.01594 -24.2695
ltibia 25.4159
lfoot -17.514 13.2336
ltoes -10.2133
152
root -3.43157 17.7075 -6.83724 2.12002 29.5491 0.571465
lowerback 2.60761 -3.56367 -7.14787
upperback 1.26132 -4.90723 1.11691
thorax 0.545682 -2.51264 5.22714
lowerneck -20.4263 -4.90312 -13.4498
upperneck 33.1979 -2.07178 0.382689
head 15.362 -2.50333 2.06679
rclavicle -2.97804e-014 1.82882e-014
rhumerus 13.9144 -2.14151 -64.7395
rradius 74.7986
rwrist -54.4931
rhand -13.9159 -5.10251
rfingers 7.12502
rthumb 12.2102 -34.7261
lclavicle -2.97804e-014 1.82882e-014
lhumerus 18.1216 -18.2524 79.3283
lradius 67.7392
lwrist 80.156
lhand -8.40395 32.7884
lfingers 7.12502
lthumb 17.5201 62.0189
rfemur -25.2358 -8.64261 17.2213
rtibia 45.8114
rfoot -19.0711 -16.4437
rtoes 5.58136
lfemur -4.87857 4.02603 -24.5499
ltibia 25.3155
lfoot -17.4814 13.3577
ltoes -10.4158
153
root -3.41096 17.7042 -6.85891 2.07563 29.5625 0.730539
lowerback 2.56984 -3.60789 -7.36941
upperback 1.28437 -4.96743 1.1194
thorax 0.619251 -2.54799 5.34896
lowerneck -20.4 -4.84648 -13.5454
upperneck 33.3063 -1.98819 0.483141
head 15.4032 -2.47068 2.14286
rclavicle -3.42655e-014 -7.65321e-015
rhumerus 15.3326 -2.50735 -65.0254
rradius 73.0978
rwrist -56.08
rhand -15.9777 -5.85387
rfingers 7.12502
rthumb 10.2216 -35.5855
lclavicle -3.42655e-014 -7.65321e-015
lhumerus 19.2898 -18.1241 79.0189
lradius 66.7722
lwrist 80.1862
lhand -8.8215 33.7332
lfingers 7.12502
lthumb 17.1183 62.9991
rfemur -25.4227 -8.43392 16.8555
rtibia 46.3094
rfoot -18.7047 -16.4223
rtoes 5.81087
lfemur -4.74603 4.03791 -24.7969
ltibia 25.236
lfoot -17.3627 13.3486
ltoes -10.359
154
root -3.3895 17.6998 -6.88313 1.9552 29.4377 0.81086
lowerback 2.68154 -3.56657 -7.42028
upperback 1.32399 -4.92056 1.07604
thorax 0.591505 -2.52456 5.33904
lowerneck -20.6251 -4.82152 -13.529
upperneck 33.5367 -1.92928 0.541128
head 15.5589 -2.44631 2.17553
rclavicle 8.39617e-014 6.95746e-015
rhumerus 16.6952 -2.98505 -65.3489
rradius 71.5578
rwrist -57.4382
rhand -18.1047 -6.2292
rfingers 7.12502
rthumb 8.16931 -36.0513
lclavicle 8.39617e-014 6.95746e-015
lhumerus 20.6876 -18.0522 78.6517
lradius 65.7847
lwrist 80.1245
lhand -9.15482 34.113
lfingers 7.12502
lthumb 16.7974 63.4064
rfemur -25.5909 -8.20554 16.5918
rtibia 46.7904
rfoot -18.1682 -16.3477
rtoes 6.11895
lfemur -4.58512 4.1532 -24.9793
ltibia 25.1881
lfoot -17.31 13.3389
ltoes -10.0832
155
root -3.36714 17.6937 -6.9036 1.77394 29.223 0.717153
lowerback 2.75941 -3.49308 -7.27313
upperback 1.39639 -4.8225 1.04765
thorax 0.593424 -2.47617 5.23048
lowerneck -21.0266 -4.83047 -13.4665
upperneck 33.8002 -1.89025 0.555192
head 15.7732 -2.43283 2.17621
rclavicle -3.88873e-015 1.96797e-014
rhumerus 18.1219 -3.4979 -65.6777
rradius 70.0709
rwrist -58.6486
rhand -20.0874 -6.3368
rfingers 7.12502
rthumb 6.25547 -36.2244
lclavicle -3.88873e-015 1.96797e-014
lhumerus 22.2391 -17.9703 78.2606
lradius 64.7783
lwrist 79.8592
lhand -9.21421 34.2006
lfingers 7.12502
lthumb 16.7402 63.4988
rfemur -25.7805 -7.85048 16.5173
rtibia 47.2218
rfoot -17.6643 -16.2543
rtoes 6.84043
lfemur -4.47172 4.32558 -25.0063
ltibia 25.1899
lfoot -17.2931 13.4527
ltoes -10.2714
156
root -3.34591 17.6911 -6.92192 1.58057 29.0814 0.600802
lowerback 2.78756 -3.46281 -7.15381
upperback 1.47365 -4.77884 1.06878
thorax 0.643236 -2.45761 5.18474
lowerneck -21.3207 -4.80983 -13.4109
upperneck 34.0665 -1.79908 0.507287
head 15.9623 -2.40728 2.16303
rclavicle 3.21907e-014 -1.78906e-015
rhumerus 19.6253 -3.97798 -66.0306
rradius 68.6734
rwrist -59.4395
rhand -21.9842 -7.27984
rfingers 7.12502
rthumb 4.42403 -37.2136
lclavicle 3.21907e-014 -1.78906e-015
lhumerus 23.7364 -17.8307 77.8632
lradius 63.846
lwrist 79.4326
lhand -9.25467 34.3038
lfingers 7.12502
lthumb 16.7013 63.6054
rfemur -25.9319 -7.47834 16.4524
rtibia 47.6028
rfoot -17.291 -16.1968
rtoes 7.49342
lfemur -4.35674 4.42983 -24.9947
ltibia 25.2101
lfoot -17.3321 13.5488
ltoes -10.3904
